<svg width="773" height="449" viewBox="0 0 773 449" fill="none" xmlns="http://www.w3.org/2000/svg">
<path d="M547.348 67.0689C334.491 -98.3541 164.205 95.0425 166.637 208.162C177.584 311.549 323.543 230.055 516.94 120.585C693.308 31.7933 710.336 53.6873 704.255 71.9323C671.414 123.537 603.299 148.561 621.544 159.508C633.708 154.643 788.182 36.661 771.153 6.2503C761.422 -5.91045 706.688 -7.12769 547.348 67.0689Z" fill="white"/>
<path d="M225.115 381.046C437.972 546.469 608.258 353.073 605.826 239.954C594.879 136.566 448.92 218.06 255.523 327.53C79.155 416.322 62.1264 394.428 68.2081 376.183C101.049 324.578 169.164 299.554 150.919 288.607C138.755 293.472 -15.7187 411.454 1.30988 441.865C11.0405 454.026 65.7754 455.243 225.115 381.046Z" fill="white"/>
</svg>
